<?xml version="1.0" encoding="UTF-8" standalone="no"?><svg xmlns="http://www.w3.org/2000/svg" xmlns:xlink="http://www.w3.org/1999/xlink" clip-rule="evenodd" stroke-miterlimit="10" viewBox="0 0 1024 768"><desc>SVG generated by Keynote</desc><defs></defs><g transform="matrix(1.00, 0.00, -0.00, -1.00, 0.0, 768.0)"><path d="M 0.0 768.0 L 1024.0 768.0 L 1024.0 0.0 L 0.0 0.0 Z M 0.0 768.0 " fill="#52575F"></path><text xml:space="preserve" font-family="Helvetica-Light,Helvetica" font-size="50.0" fill="#FEFFFF" transform="matrix(1.00, 0.00, -0.00, -1.00, 385.6, 671.5)">E</text><text xml:space="preserve" font-family="Helvetica-Light,Helvetica" font-size="50.0" fill="#FEFFFF" transform="matrix(1.00, 0.00, -0.00, -1.00, 416.2, 671.5)">x</text><text xml:space="preserve" font-family="Helvetica-Light,Helvetica" font-size="50.0" fill="#FEFFFF" transform="matrix(1.00, 0.00, -0.00, -1.00, 441.2, 671.5)">t</text><text xml:space="preserve" font-family="Helvetica-Light,Helvetica" font-size="50.0" fill="#FEFFFF" transform="matrix(1.00, 0.00, -0.00, -1.00, 455.1, 671.5)">r</text><text xml:space="preserve" font-family="Helvetica-Light,Helvetica" font-size="50.0" fill="#FEFFFF" transform="matrix(1.00, 0.00, -0.00, -1.00, 471.7, 671.5)">a</text><text xml:space="preserve" font-family="Helvetica-Light,Helvetica" font-size="50.0" fill="#FEFFFF" transform="matrix(1.00, 0.00, -0.00, -1.00, 499.5, 671.5)">s</text><text xml:space="preserve" font-family="Helvetica-Light,Helvetica" font-size="50.0" fill="#FEFFFF" transform="matrix(1.00, 0.00, -0.00, -1.00, 524.5, 671.5)"> </text><text xml:space="preserve" font-family="Helvetica-Light,Helvetica" font-size="50.0" fill="#FEFFFF" transform="matrix(1.00, 0.00, -0.00, -1.00, 538.4, 671.5)">…</text><text xml:space="preserve" font-family="Helvetica-Light,Helvetica" font-size="50.0" fill="#FEFFFF" transform="matrix(1.00, 0.00, -0.00, -1.00, 588.4, 671.5)">…</text><image xlink:href="../../B5FD7F20-DF69-42D1-BFDE-55BD66768EAF/assets/724DCB7A54FA105E4BCF870E4EE99513.png" width="284.00" height="243.00" transform="matrix(1.00, 0.00, -0.00, -1.00, 44.0, 599.0)"></image><image xlink:href="../../B5FD7F20-DF69-42D1-BFDE-55BD66768EAF/assets/DF05971F06A79C62740B2B9129891666.png" width="791.00" height="1024.00" transform="matrix(0.26, 0.00, -0.00, -0.26, 278.0, 318.0)"></image><image xlink:href="../../B5FD7F20-DF69-42D1-BFDE-55BD66768EAF/assets/739027997A7F103021E72B4EDE8AE6A8.png" width="225.00" height="225.00" transform="matrix(1.00, 0.00, -0.00, -1.00, 497.0, 602.0)"></image><image xlink:href="../../B5FD7F20-DF69-42D1-BFDE-55BD66768EAF/assets/A5B170616C0FBDDD789B6610525ABEA3.png" width="256.00" height="256.00" transform="matrix(1.00, 0.00, -0.00, -1.00, 699.0, 312.0)"></image></g></svg>