<?xml version="1.0" encoding="UTF-8" standalone="no"?><svg xmlns="http://www.w3.org/2000/svg" xmlns:xlink="http://www.w3.org/1999/xlink" clip-rule="evenodd" stroke-miterlimit="10" viewBox="0 0 1024 768"><desc>SVG generated by Keynote</desc><defs></defs><g transform="matrix(1.00, 0.00, -0.00, -1.00, 0.0, 768.0)"><path d="M 0.0 768.0 L 1024.0 768.0 L 1024.0 0.0 L 0.0 0.0 Z M 0.0 768.0 " fill="#52575F"></path><text xml:space="preserve" font-family="Helvetica-Light,Helvetica" font-size="50.0" fill="#FEFFFF" transform="matrix(1.00, 0.00, -0.00, -1.00, 445.5, 573.5)">P</text><text xml:space="preserve" font-family="Helvetica-Light,Helvetica" font-size="50.0" fill="#FEFFFF" transform="matrix(1.00, 0.00, -0.00, -1.00, 476.0, 573.5)">r</text><text xml:space="preserve" font-family="Helvetica-Light,Helvetica" font-size="50.0" fill="#FEFFFF" transform="matrix(1.00, 0.00, -0.00, -1.00, 491.8, 573.5)">o</text><text xml:space="preserve" font-family="Helvetica-Light,Helvetica" font-size="50.0" fill="#FEFFFF" transform="matrix(1.00, 0.00, -0.00, -1.00, 519.6, 573.5)">y</text><text xml:space="preserve" font-family="Helvetica-Light,Helvetica" font-size="50.0" fill="#FEFFFF" transform="matrix(1.00, 0.00, -0.00, -1.00, 544.6, 573.5)">e</text><text xml:space="preserve" font-family="Helvetica-Light,Helvetica" font-size="50.0" fill="#FEFFFF" transform="matrix(1.00, 0.00, -0.00, -1.00, 572.4, 573.5)">c</text><text xml:space="preserve" font-family="Helvetica-Light,Helvetica" font-size="50.0" fill="#FEFFFF" transform="matrix(1.00, 0.00, -0.00, -1.00, 600.2, 573.5)">t</text><text xml:space="preserve" font-family="Helvetica-Light,Helvetica" font-size="50.0" fill="#FEFFFF" transform="matrix(1.00, 0.00, -0.00, -1.00, 614.1, 573.5)">o</text><text xml:space="preserve" font-family="Helvetica-Light,Helvetica" font-size="50.0" fill="#FEFFFF" transform="matrix(1.00, 0.00, -0.00, -1.00, 641.9, 573.5)"> </text><text xml:space="preserve" font-family="Helvetica-Light,Helvetica" font-size="50.0" fill="#FEFFFF" transform="matrix(1.00, 0.00, -0.00, -1.00, 655.8, 573.5)">3</text><text xml:space="preserve" font-family="Helvetica-Light,Helvetica" font-size="50.0" fill="#FEFFFF" transform="matrix(1.00, 0.00, -0.00, -1.00, 683.6, 573.5)">:</text><text xml:space="preserve" font-family="Helvetica-Light,Helvetica" font-size="50.0" fill="#FEFFFF" transform="matrix(1.00, 0.00, -0.00, -1.00, 697.5, 573.5)"> </text><text xml:space="preserve" font-family="Helvetica-Light,Helvetica" font-size="50.0" fill="#FEFFFF" transform="matrix(1.00, 0.00, -0.00, -1.00, 711.4, 573.5)">S</text><text xml:space="preserve" font-family="Helvetica-Light,Helvetica" font-size="50.0" fill="#FEFFFF" transform="matrix(1.00, 0.00, -0.00, -1.00, 741.9, 573.5)">a</text><text xml:space="preserve" font-family="Helvetica-Light,Helvetica" font-size="50.0" fill="#FEFFFF" transform="matrix(1.00, 0.00, -0.00, -1.00, 769.7, 573.5)">n</text><text xml:space="preserve" font-family="Helvetica-Light,Helvetica" font-size="50.0" fill="#FEFFFF" transform="matrix(1.00, 0.00, -0.00, -1.00, 797.5, 573.5)"> </text><text xml:space="preserve" font-family="Helvetica-Light,Helvetica" font-size="50.0" fill="#FEFFFF" transform="matrix(1.00, 0.00, -0.00, -1.00, 811.4, 573.5)">V</text><text xml:space="preserve" font-family="Helvetica-Light,Helvetica" font-size="50.0" fill="#FEFFFF" transform="matrix(1.00, 0.00, -0.00, -1.00, 839.2, 573.5)">a</text><text xml:space="preserve" font-family="Helvetica-Light,Helvetica" font-size="50.0" fill="#FEFFFF" transform="matrix(1.00, 0.00, -0.00, -1.00, 867.0, 573.5)">l</text><text xml:space="preserve" font-family="Helvetica-Light,Helvetica" font-size="50.0" fill="#FEFFFF" transform="matrix(1.00, 0.00, -0.00, -1.00, 878.1, 573.5)">e</text><text xml:space="preserve" font-family="Helvetica-Light,Helvetica" font-size="50.0" fill="#FEFFFF" transform="matrix(1.00, 0.00, -0.00, -1.00, 905.9, 573.5)">n</text><text xml:space="preserve" font-family="Helvetica-Light,Helvetica" font-size="50.0" fill="#FEFFFF" transform="matrix(1.00, 0.00, -0.00, -1.00, 933.7, 573.5)">t</text><text xml:space="preserve" font-family="Helvetica-Light,Helvetica" font-size="50.0" fill="#FEFFFF" transform="matrix(1.00, 0.00, -0.00, -1.00, 947.6, 573.5)">í</text><text xml:space="preserve" font-family="Helvetica-Light,Helvetica" font-size="50.0" fill="#FEFFFF" transform="matrix(1.00, 0.00, -0.00, -1.00, 958.7, 573.5)">n</text><image xlink:href="../../2F0089DD-8833-4007-9F2E-E236D2E0DD08/assets/6A204F7BCA63736ECCDC715C131CAA39.png" width="700.00" height="467.00" transform="matrix(1.00, 0.00, -0.00, -1.00, 290.0, 527.0)"></image></g></svg>