<?xml version="1.0" encoding="UTF-8" standalone="no"?><svg xmlns="http://www.w3.org/2000/svg" xmlns:xlink="http://www.w3.org/1999/xlink" clip-rule="evenodd" stroke-miterlimit="10" viewBox="0 0 1024 768"><desc>SVG generated by Keynote</desc><defs></defs><g transform="matrix(1.00, 0.00, -0.00, -1.00, 0.0, 768.0)"><path d="M 0.0 768.0 L 1024.0 768.0 L 1024.0 0.0 L 0.0 0.0 Z M 0.0 768.0 " fill="#52575F"></path><text xml:space="preserve" font-family="Helvetica-Light,Helvetica" font-size="50.0" fill="#FEFFFF" transform="matrix(1.00, 0.00, -0.00, -1.00, 485.3, 490.5)">A</text><text xml:space="preserve" font-family="Helvetica-Light,Helvetica" font-size="50.0" fill="#FEFFFF" transform="matrix(1.00, 0.00, -0.00, -1.00, 518.6, 490.5)">p</text><text xml:space="preserve" font-family="Helvetica-Light,Helvetica" font-size="50.0" fill="#FEFFFF" transform="matrix(1.00, 0.00, -0.00, -1.00, 549.2, 490.5)">r</text><text xml:space="preserve" font-family="Helvetica-Light,Helvetica" font-size="50.0" fill="#FEFFFF" transform="matrix(1.00, 0.00, -0.00, -1.00, 564.9, 490.5)">e</text><text xml:space="preserve" font-family="Helvetica-Light,Helvetica" font-size="50.0" fill="#FEFFFF" transform="matrix(1.00, 0.00, -0.00, -1.00, 592.7, 490.5)">n</text><text xml:space="preserve" font-family="Helvetica-Light,Helvetica" font-size="50.0" fill="#FEFFFF" transform="matrix(1.00, 0.00, -0.00, -1.00, 620.5, 490.5)">d</text><text xml:space="preserve" font-family="Helvetica-Light,Helvetica" font-size="50.0" fill="#FEFFFF" transform="matrix(1.00, 0.00, -0.00, -1.00, 651.1, 490.5)">i</text><text xml:space="preserve" font-family="Helvetica-Light,Helvetica" font-size="50.0" fill="#FEFFFF" transform="matrix(1.00, 0.00, -0.00, -1.00, 662.2, 490.5)">e</text><text xml:space="preserve" font-family="Helvetica-Light,Helvetica" font-size="50.0" fill="#FEFFFF" transform="matrix(1.00, 0.00, -0.00, -1.00, 690.0, 490.5)">n</text><text xml:space="preserve" font-family="Helvetica-Light,Helvetica" font-size="50.0" fill="#FEFFFF" transform="matrix(1.00, 0.00, -0.00, -1.00, 717.8, 490.5)">d</text><text xml:space="preserve" font-family="Helvetica-Light,Helvetica" font-size="50.0" fill="#FEFFFF" transform="matrix(1.00, 0.00, -0.00, -1.00, 748.3, 490.5)">o</text><text xml:space="preserve" font-family="Helvetica-Light,Helvetica" font-size="50.0" fill="#FEFFFF" transform="matrix(1.00, 0.00, -0.00, -1.00, 776.1, 490.5)"> </text><text xml:space="preserve" font-family="Helvetica-Light,Helvetica" font-size="50.0" fill="#FEFFFF" transform="matrix(1.00, 0.00, -0.00, -1.00, 790.0, 490.5)">R</text><text xml:space="preserve" font-family="Helvetica-Light,Helvetica" font-size="50.0" fill="#FEFFFF" transform="matrix(1.00, 0.00, -0.00, -1.00, 823.4, 490.5)">u</text><text xml:space="preserve" font-family="Helvetica-Light,Helvetica" font-size="50.0" fill="#FEFFFF" transform="matrix(1.00, 0.00, -0.00, -1.00, 851.2, 490.5)">b</text><text xml:space="preserve" font-family="Helvetica-Light,Helvetica" font-size="50.0" fill="#FEFFFF" transform="matrix(1.00, 0.00, -0.00, -1.00, 881.7, 490.5)">y</text><image xlink:href="7AF41FC6E14361A504DA880A9FE04B56.png" width="1024.00" height="768.00" transform="matrix(0.44, 0.00, -0.00, -0.44, 479.0, 422.0)"></image></g></svg>